<svg width="326" height="81" viewBox="0 0 326 81" fill="none" xmlns="http://www.w3.org/2000/svg">
   <path
      d="M0.808 63V1.4H26.152C30.024 1.4 33.4267 2.192 36.36 3.776C39.352 5.30133 41.6693 7.472 43.312 10.288C45.0133 13.104 45.864 16.448 45.864 20.32V21.552C45.864 25.3653 44.984 28.7093 43.224 31.584C41.5227 34.4 39.176 36.6 36.184 38.184C33.2507 39.7093 29.9067 40.472 26.152 40.472H12.424V63H0.808ZM12.424 29.912H25.008C27.7653 29.912 29.9947 29.1493 31.696 27.624C33.3973 26.0987 34.248 24.016 34.248 21.376V20.496C34.248 17.856 33.3973 15.7733 31.696 14.248C29.9947 12.7227 27.7653 11.96 25.008 11.96H12.424V29.912ZM51.7694 63V19.352H62.6814V24.28H64.2654C64.9107 22.52 65.9667 21.2293 67.4334 20.408C68.9587 19.5867 70.7187 19.176 72.7134 19.176H77.9934V29.032H72.5374C69.7214 29.032 67.404 29.7947 65.5854 31.32C63.7667 32.7867 62.8574 35.0747 62.8574 38.184V63H51.7694ZM103.381 64.232C99.0398 64.232 95.1385 63.352 91.6771 61.592C88.2158 59.832 85.4878 57.28 83.4931 53.936C81.4985 50.592 80.5011 46.5733 80.5011 41.88V40.472C80.5011 35.7787 81.4985 31.76 83.4931 28.416C85.4878 25.072 88.2158 22.52 91.6771 20.76C95.1385 19 99.0398 18.12 103.381 18.12C107.722 18.12 111.624 19 115.085 20.76C118.546 22.52 121.274 25.072 123.269 28.416C125.264 31.76 126.261 35.7787 126.261 40.472V41.88C126.261 46.5733 125.264 50.592 123.269 53.936C121.274 57.28 118.546 59.832 115.085 61.592C111.624 63.352 107.722 64.232 103.381 64.232ZM103.381 54.376C106.784 54.376 109.6 53.2907 111.829 51.12C114.058 48.8907 115.173 45.7227 115.173 41.616V40.736C115.173 36.6293 114.058 33.4907 111.829 31.32C109.658 29.0907 106.842 27.976 103.381 27.976C99.9785 27.976 97.1625 29.0907 94.9331 31.32C92.7038 33.4907 91.5891 36.6293 91.5891 40.736V41.616C91.5891 45.7227 92.7038 48.8907 94.9331 51.12C97.1625 53.2907 99.9785 54.376 103.381 54.376ZM125.9 80.6V71.096H131.708C133.351 71.096 134.172 70.216 134.172 68.456V19.352H145.26V70.744C145.26 73.736 144.38 76.112 142.62 77.872C140.86 79.6907 138.513 80.6 135.58 80.6H125.9ZM139.716 14.248C137.721 14.248 136.02 13.6027 134.612 12.312C133.263 11.0213 132.588 9.32 132.588 7.208C132.588 5.096 133.263 3.39466 134.612 2.104C136.02 0.81333 137.721 0.167996 139.716 0.167996C141.769 0.167996 143.471 0.81333 144.82 2.104C146.169 3.39466 146.844 5.096 146.844 7.208C146.844 9.32 146.169 11.0213 144.82 12.312C143.471 13.6027 141.769 14.248 139.716 14.248ZM174.931 64.232C170.589 64.232 166.747 63.3227 163.403 61.504C160.117 59.6267 157.536 57.016 155.659 53.672C153.84 50.2693 152.931 46.28 152.931 41.704V40.648C152.931 36.072 153.84 32.112 155.659 28.768C157.477 25.3653 160.029 22.7547 163.315 20.936C166.6 19.0587 170.413 18.12 174.755 18.12C179.037 18.12 182.763 19.088 185.931 21.024C189.099 22.9013 191.563 25.5413 193.323 28.944C195.083 32.288 195.963 36.1893 195.963 40.648V44.432H164.195C164.312 47.424 165.427 49.8587 167.539 51.736C169.651 53.6133 172.232 54.552 175.283 54.552C178.392 54.552 180.68 53.8773 182.147 52.528C183.613 51.1787 184.728 49.6827 185.491 48.04L194.555 52.792C193.733 54.3173 192.531 55.9893 190.947 57.808C189.421 59.568 187.368 61.0933 184.787 62.384C182.205 63.616 178.92 64.232 174.931 64.232ZM164.283 36.16H184.699C184.464 33.6373 183.437 31.6133 181.619 30.088C179.859 28.5627 177.541 27.8 174.667 27.8C171.675 27.8 169.299 28.5627 167.539 30.088C165.779 31.6133 164.693 33.6373 164.283 36.16ZM223.836 64.232C219.612 64.232 215.769 63.352 212.308 61.592C208.905 59.832 206.207 57.28 204.212 53.936C202.217 50.592 201.22 46.544 201.22 41.792V40.56C201.22 35.808 202.217 31.76 204.212 28.416C206.207 25.072 208.905 22.52 212.308 20.76C215.769 19 219.612 18.12 223.836 18.12C228.001 18.12 231.58 18.8533 234.572 20.32C237.564 21.7867 239.969 23.8107 241.788 26.392C243.665 28.9147 244.897 31.7893 245.484 35.016L234.748 37.304C234.513 35.544 233.985 33.96 233.164 32.552C232.343 31.144 231.169 30.0293 229.644 29.208C228.177 28.3867 226.329 27.976 224.1 27.976C221.871 27.976 219.847 28.4747 218.028 29.472C216.268 30.4107 214.86 31.848 213.804 33.784C212.807 35.6613 212.308 37.9787 212.308 40.736V41.616C212.308 44.3733 212.807 46.72 213.804 48.656C214.86 50.5333 216.268 51.9707 218.028 52.968C219.847 53.9067 221.871 54.376 224.1 54.376C227.444 54.376 229.967 53.5253 231.668 51.824C233.428 50.064 234.543 47.776 235.012 44.96L245.748 47.512C244.985 50.6213 243.665 53.4667 241.788 56.048C239.969 58.5707 237.564 60.5653 234.572 62.032C231.58 63.4987 228.001 64.232 223.836 64.232ZM267.739 63C264.865 63 262.518 62.12 260.699 60.36C258.939 58.5413 258.059 56.136 258.059 53.144V28.504H247.147V19.352H258.059V5.8H269.147V19.352H281.115V28.504H269.147V51.208C269.147 52.968 269.969 53.848 271.611 53.848H280.059V63H267.739ZM306.78 64.232C301.09 64.232 296.426 63 292.788 60.536C289.151 58.072 286.951 54.552 286.188 49.976L296.396 47.336C296.807 49.3893 297.482 51.0027 298.42 52.176C299.418 53.3493 300.62 54.2 302.028 54.728C303.495 55.1973 305.079 55.432 306.78 55.432C309.362 55.432 311.268 54.992 312.5 54.112C313.732 53.1733 314.348 52.0293 314.348 50.68C314.348 49.3307 313.762 48.304 312.588 47.6C311.415 46.8373 309.538 46.2213 306.956 45.752L304.492 45.312C301.442 44.7253 298.655 43.9333 296.132 42.936C293.61 41.88 291.586 40.4427 290.06 38.624C288.535 36.8053 287.772 34.4587 287.772 31.584C287.772 27.2427 289.356 23.928 292.524 21.64C295.692 19.2933 299.858 18.12 305.02 18.12C309.89 18.12 313.938 19.2053 317.164 21.376C320.391 23.5467 322.503 26.392 323.5 29.912L313.204 33.08C312.735 30.8507 311.767 29.2667 310.3 28.328C308.892 27.3893 307.132 26.92 305.02 26.92C302.908 26.92 301.295 27.3013 300.18 28.064C299.066 28.768 298.508 29.7653 298.508 31.056C298.508 32.464 299.095 33.52 300.268 34.224C301.442 34.8693 303.026 35.368 305.02 35.72L307.484 36.16C310.77 36.7467 313.732 37.5387 316.372 38.536C319.071 39.4747 321.183 40.8533 322.708 42.672C324.292 44.432 325.084 46.8373 325.084 49.888C325.084 54.464 323.412 58.0133 320.068 60.536C316.783 63 312.354 64.232 306.78 64.232Z"
      fill="white" />
</svg>